# xmcd
#
# Track frame offsets:
#	150
#	16299
#	31965
#	47659
#	64562
#	77057
#	93007
#	107335
#	123720
#	139821
#	156031
#	171128
#	195820
#
# Disc length: 2857 seconds
#
# Revision: 1
# Processed by: cddbd v1.5.2PL0 Copyright (c) Steve Scherf et al.
# Submitted via: audiograbber 1.83.01
#
DISCID=950b270d
DTITLE=Ayo - Gravity at last
DYEAR=2008
DGENRE=Pop
TTITLE0=I am not afraid
TTITLE1=Maybe (Ayo Blues)
TTITLE2=Slow Slow (Run Run)
TTITLE3=Love and hate
TTITLE4=Get out of my way
TTITLE5=Better days
TTITLE6=Change
TTITLE7=Piece of you
TTITLE8=Lonely
TTITLE9=Sometimes
TTITLE10=What's this all about?
TTITLE11=Mother
TTITLE12=Thank you
EXTD=
EXTT0=
EXTT1=
EXTT2=
EXTT3=
EXTT4=
EXTT5=
EXTT6=
EXTT7=
EXTT8=
EXTT9=
EXTT10=
EXTT11=
EXTT12=
PLAYORDER=
